<svg width="666" height="808" viewBox="0 0 666 808" fill="none" xmlns="http://www.w3.org/2000/svg">
<line x1="126.5" y1="808" x2="126.5" y2="-0.000671387" stroke="white"/>
<line x1="226.5" y1="808" x2="226.5" y2="-0.000671387" stroke="white"/>
<line x1="326.5" y1="808" x2="326.5" stroke="white"/>
<line x1="426.5" y1="808" x2="426.5" stroke="white"/>
<line x1="526.5" y1="808" x2="526.5" y2="-0.000610352" stroke="white"/>
<line x1="4" y1="203.5" x2="650" y2="203.5" stroke="white"/>
<line x1="4" y1="303.5" x2="650" y2="303.5" stroke="white"/>
<line x1="4" y1="403.5" x2="650" y2="403.5" stroke="white"/>
<line x1="4" y1="503.5" x2="650" y2="503.5" stroke="white"/>
<line x1="4" y1="603.5" x2="650" y2="603.5" stroke="white"/>
<path d="M366.339 107.725C367.892 107.299 369.286 108.791 368.756 110.312L358.137 140.8C357.58 142.399 355.412 142.625 354.537 141.176L347.034 128.753C346.89 128.514 346.698 128.308 346.47 128.148L334.583 119.822C333.196 118.851 333.569 116.703 335.202 116.255L366.339 107.725Z" fill="#172CE7"/>
<rect x="33.519" y="146.251" width="290.473" height="70.8471" rx="10" fill="#172CE7"/>
<path d="M81.6276 175.872V162.288H74.2596L74.1396 165.816C74.0916 167 74.0116 168.136 73.8996 169.224C73.8036 170.312 73.6596 171.296 73.4676 172.176C73.2756 173.04 73.0036 173.752 72.6516 174.312C72.3156 174.872 71.8836 175.216 71.3556 175.344L68.7636 174.912C69.3876 174.96 69.8996 174.752 70.2996 174.288C70.7156 173.808 71.0356 173.144 71.2596 172.296C71.4996 171.432 71.6756 170.432 71.7876 169.296C71.8996 168.144 71.9796 166.912 72.0276 165.6L72.1956 160.2H84.0036V175.872H81.6276ZM68.1636 180.672L68.1876 174.912H86.4756V180.672H84.2436V177H70.4196L70.3956 180.672H68.1636ZM87.2606 176.976L87.4046 175.032C87.5166 175.048 87.6206 175.064 87.7166 175.08C87.8126 175.096 87.9006 175.104 87.9806 175.104C88.4926 175.104 88.8926 174.928 89.1806 174.576C89.4846 174.224 89.7086 173.76 89.8526 173.184C89.9966 172.592 90.1006 171.928 90.1646 171.192C90.2286 170.456 90.2766 169.72 90.3086 168.984L90.5246 164.28H100.293V177H97.9886V165.624L98.5406 166.296H92.0126L92.5406 165.6L92.3726 169.128C92.3246 170.248 92.2366 171.296 92.1086 172.272C91.9806 173.248 91.7806 174.104 91.5086 174.84C91.2526 175.576 90.8926 176.152 90.4286 176.568C89.9806 176.984 89.3966 177.192 88.6766 177.192C88.4686 177.192 88.2446 177.168 88.0046 177.12C87.7806 177.088 87.5326 177.04 87.2606 176.976ZM112.884 177V172.536L113.244 172.968H109.188C107.492 172.968 106.164 172.608 105.204 171.888C104.26 171.168 103.788 170.12 103.788 168.744C103.788 167.272 104.292 166.16 105.3 165.408C106.324 164.656 107.684 164.28 109.38 164.28H114.948V177H112.884ZM103.668 177L107.124 172.128H109.5L106.14 177H103.668ZM112.884 171.816V165.648L113.244 166.296H109.452C108.396 166.296 107.58 166.496 107.004 166.896C106.428 167.28 106.14 167.92 106.14 168.816C106.14 170.48 107.212 171.312 109.356 171.312H113.244L112.884 171.816ZM125.888 177V164.28H128.192V169.68H135.44V164.28H137.744V177H135.44V171.672H128.192V177H125.888ZM150.024 177V174.312L149.904 173.808V169.224C149.904 168.248 149.616 167.496 149.04 166.968C148.48 166.424 147.632 166.152 146.496 166.152C145.744 166.152 145.008 166.28 144.288 166.536C143.568 166.776 142.96 167.104 142.464 167.52L141.504 165.792C142.16 165.264 142.944 164.864 143.856 164.592C144.784 164.304 145.752 164.16 146.76 164.16C148.504 164.16 149.848 164.584 150.792 165.432C151.736 166.28 152.208 167.576 152.208 169.32V177H150.024ZM145.848 177.144C144.904 177.144 144.072 176.984 143.352 176.664C142.648 176.344 142.104 175.904 141.72 175.344C141.336 174.768 141.144 174.12 141.144 173.4C141.144 172.712 141.304 172.088 141.624 171.528C141.96 170.968 142.496 170.52 143.232 170.184C143.984 169.848 144.992 169.68 146.256 169.68H150.288V171.336H146.352C145.2 171.336 144.424 171.528 144.024 171.912C143.624 172.296 143.424 172.76 143.424 173.304C143.424 173.928 143.672 174.432 144.168 174.816C144.664 175.184 145.352 175.368 146.232 175.368C147.096 175.368 147.848 175.176 148.488 174.792C149.144 174.408 149.616 173.848 149.904 173.112L150.36 174.696C150.056 175.448 149.52 176.048 148.752 176.496C147.984 176.928 147.016 177.144 145.848 177.144ZM164.373 171.792C163.701 172.112 163.005 172.368 162.285 172.56C161.581 172.736 160.853 172.824 160.101 172.824C158.565 172.824 157.349 172.464 156.453 171.744C155.573 171.024 155.133 169.912 155.133 168.408V164.28H157.437V168.264C157.437 169.176 157.717 169.848 158.277 170.28C158.853 170.712 159.621 170.928 160.581 170.928C161.189 170.928 161.813 170.848 162.453 170.688C163.109 170.528 163.749 170.304 164.373 170.016V171.792ZM164.205 177V164.28H166.509V177H164.205ZM170.982 177V164.28H173.286V173.544L181.086 164.28H183.174V177H180.87V167.736L173.094 177H170.982ZM187.646 177V164.28H189.95V169.68H197.198V164.28H199.502V177H197.198V171.672H189.95V177H187.646ZM211.782 177V174.312L211.662 173.808V169.224C211.662 168.248 211.374 167.496 210.798 166.968C210.238 166.424 209.39 166.152 208.254 166.152C207.502 166.152 206.766 166.28 206.046 166.536C205.326 166.776 204.718 167.104 204.222 167.52L203.262 165.792C203.918 165.264 204.702 164.864 205.614 164.592C206.542 164.304 207.51 164.16 208.518 164.16C210.262 164.16 211.606 164.584 212.55 165.432C213.494 166.28 213.966 167.576 213.966 169.32V177H211.782ZM207.606 177.144C206.662 177.144 205.83 176.984 205.11 176.664C204.406 176.344 203.862 175.904 203.478 175.344C203.094 174.768 202.902 174.12 202.902 173.4C202.902 172.712 203.062 172.088 203.382 171.528C203.718 170.968 204.254 170.52 204.99 170.184C205.742 169.848 206.75 169.68 208.014 169.68H212.046V171.336H208.11C206.958 171.336 206.182 171.528 205.782 171.912C205.382 172.296 205.182 172.76 205.182 173.304C205.182 173.928 205.43 174.432 205.926 174.816C206.422 175.184 207.11 175.368 207.99 175.368C208.854 175.368 209.606 175.176 210.246 174.792C210.902 174.408 211.374 173.848 211.662 173.112L212.118 174.696C211.814 175.448 211.278 176.048 210.51 176.496C209.742 176.928 208.774 177.144 207.606 177.144ZM218.115 177V164.28H220.419V169.488H224.259V171.624H220.419V177H218.115ZM229.371 177.144C228.123 177.144 227.011 176.864 226.035 176.304C225.075 175.744 224.315 174.976 223.755 174C223.195 173.008 222.915 171.888 222.915 170.64C222.915 169.376 223.195 168.256 223.755 167.28C224.315 166.288 225.075 165.52 226.035 164.976C227.011 164.432 228.123 164.16 229.371 164.16C230.603 164.16 231.707 164.432 232.683 164.976C233.659 165.52 234.427 166.288 234.987 167.28C235.547 168.256 235.827 169.376 235.827 170.64C235.827 171.904 235.547 173.024 234.987 174C234.427 174.976 233.659 175.744 232.683 176.304C231.707 176.864 230.603 177.144 229.371 177.144ZM229.371 175.128C230.171 175.128 230.883 174.944 231.507 174.576C232.131 174.192 232.627 173.672 232.995 173.016C233.363 172.344 233.547 171.552 233.547 170.64C233.547 169.728 233.363 168.944 232.995 168.288C232.627 167.616 232.131 167.096 231.507 166.728C230.883 166.36 230.171 166.176 229.371 166.176C228.587 166.176 227.875 166.36 227.235 166.728C226.611 167.096 226.115 167.616 225.747 168.288C225.379 168.944 225.195 169.728 225.195 170.64C225.195 171.552 225.379 172.344 225.747 173.016C226.115 173.672 226.611 174.192 227.235 174.576C227.875 174.944 228.587 175.128 229.371 175.128ZM247.586 174.984L247.058 175.584V164.28H249.362V175.584L248.786 174.984H255.506L254.954 175.584V164.28H257.258V177H239.138V164.28H241.442V175.584L240.89 174.984H247.586ZM256.97 179.712V176.4L257.522 177H254.834V174.984H259.13V179.712H256.97ZM261.732 177V164.28H264.036V173.544L271.836 164.28H273.924V177H271.62V167.736L263.844 177H261.732ZM276.38 177L281.852 169.896L281.828 171.072L276.62 164.28H279.188L283.172 169.512H282.188L286.172 164.28H288.692L283.412 171.12L283.436 169.896L288.956 177H286.34L282.14 171.432L283.076 171.576L278.948 177H276.38ZM109.067 204V201.312L108.947 200.808V196.224C108.947 195.248 108.659 194.496 108.083 193.968C107.523 193.424 106.675 193.152 105.539 193.152C104.787 193.152 104.051 193.28 103.331 193.536C102.611 193.776 102.003 194.104 101.507 194.52L100.547 192.792C101.203 192.264 101.987 191.864 102.899 191.592C103.827 191.304 104.795 191.16 105.803 191.16C107.547 191.16 108.891 191.584 109.835 192.432C110.779 193.28 111.251 194.576 111.251 196.32V204H109.067ZM104.891 204.144C103.947 204.144 103.115 203.984 102.395 203.664C101.691 203.344 101.147 202.904 100.763 202.344C100.379 201.768 100.187 201.12 100.187 200.4C100.187 199.712 100.347 199.088 100.667 198.528C101.003 197.968 101.539 197.52 102.275 197.184C103.027 196.848 104.035 196.68 105.299 196.68H109.331V198.336H105.395C104.243 198.336 103.467 198.528 103.067 198.912C102.667 199.296 102.467 199.76 102.467 200.304C102.467 200.928 102.715 201.432 103.211 201.816C103.707 202.184 104.395 202.368 105.275 202.368C106.139 202.368 106.891 202.176 107.531 201.792C108.187 201.408 108.659 200.848 108.947 200.112L109.403 201.696C109.099 202.448 108.563 203.048 107.795 203.496C107.027 203.928 106.059 204.144 104.891 204.144ZM115.4 204V191.28H117.704V200.544L125.504 191.28H127.592V204H125.288V194.736L117.512 204H115.4ZM121.352 189.624C120.184 189.624 119.264 189.344 118.592 188.784C117.936 188.208 117.6 187.384 117.584 186.312H119.144C119.16 186.92 119.36 187.4 119.744 187.752C120.144 188.104 120.672 188.28 121.328 188.28C121.984 188.28 122.512 188.104 122.912 187.752C123.312 187.4 123.52 186.92 123.536 186.312H125.144C125.128 187.384 124.784 188.208 124.112 188.784C123.44 189.344 122.52 189.624 121.352 189.624ZM134.584 204V192.696L135.16 193.296H129.928V191.28H141.544V193.296H136.336L136.888 192.696V204H134.584ZM143.9 204V191.28H146.204V200.544L154.004 191.28H156.092V204H153.788V194.736L146.012 204H143.9ZM169.012 201.984L168.484 202.584V191.28H170.788V202.584L170.212 201.984H176.932L176.38 202.584V191.28H178.684V204H160.564V191.28H162.868V202.584L162.316 201.984H169.012ZM183.158 204V191.28H185.462V196.68H192.71V191.28H195.014V204H192.71V198.672H185.462V204H183.158ZM199.494 204V191.28H201.798V200.544L209.598 191.28H211.686V204H209.382V194.736L201.606 204H199.494ZM225.374 204L220.454 197.808L222.35 196.656L228.086 204H225.374ZM216.158 204V191.28H218.462V204H216.158ZM217.766 198.624V196.656H221.966V198.624H217.766ZM222.542 197.904L220.406 197.616L225.278 191.28H227.75L222.542 197.904ZM235.528 204.144C234.248 204.144 233.112 203.864 232.12 203.304C231.128 202.744 230.344 201.976 229.768 201C229.192 200.008 228.904 198.888 228.904 197.64C228.904 196.376 229.192 195.256 229.768 194.28C230.344 193.304 231.128 192.544 232.12 192C233.112 191.44 234.248 191.16 235.528 191.16C236.792 191.16 237.92 191.44 238.912 192C239.92 192.544 240.704 193.304 241.264 194.28C241.84 195.24 242.128 196.36 242.128 197.64C242.128 198.904 241.84 200.024 241.264 201C240.704 201.976 239.92 202.744 238.912 203.304C237.92 203.864 236.792 204.144 235.528 204.144ZM235.528 202.128C236.344 202.128 237.072 201.944 237.712 201.576C238.368 201.208 238.88 200.688 239.248 200.016C239.616 199.328 239.8 198.536 239.8 197.64C239.8 196.728 239.616 195.944 239.248 195.288C238.88 194.616 238.368 194.096 237.712 193.728C237.072 193.36 236.344 193.176 235.528 193.176C234.712 193.176 233.984 193.36 233.344 193.728C232.704 194.096 232.192 194.616 231.808 195.288C231.424 195.944 231.232 196.728 231.232 197.64C231.232 198.536 231.424 199.328 231.808 200.016C232.192 200.688 232.704 201.208 233.344 201.576C233.984 201.944 234.712 202.128 235.528 202.128ZM245.455 204V191.28H251.359C252.847 191.28 254.015 191.568 254.863 192.144C255.727 192.704 256.159 193.504 256.159 194.544C256.159 195.584 255.751 196.392 254.935 196.968C254.135 197.528 253.071 197.808 251.743 197.808L252.103 197.184C253.623 197.184 254.751 197.464 255.487 198.024C256.223 198.584 256.591 199.408 256.591 200.496C256.591 201.6 256.175 202.464 255.343 203.088C254.527 203.696 253.271 204 251.575 204H245.455ZM247.711 202.224H251.407C252.367 202.224 253.087 202.08 253.567 201.792C254.047 201.488 254.287 201.008 254.287 200.352C254.287 199.68 254.063 199.192 253.615 198.888C253.183 198.568 252.495 198.408 251.551 198.408H247.711V202.224ZM247.711 196.752H251.167C252.047 196.752 252.711 196.592 253.159 196.272C253.623 195.936 253.855 195.472 253.855 194.88C253.855 194.272 253.623 193.816 253.159 193.512C252.711 193.208 252.047 193.056 251.167 193.056H247.711V196.752Z" fill="white"/>
<path d="M282.788 319.529C282.423 318.011 284.006 316.743 285.545 317.32L316.994 329.115C318.622 329.726 318.773 331.837 317.245 332.618L303.848 339.462C303.599 339.589 303.382 339.764 303.209 339.974L293.907 351.321C292.845 352.615 290.647 352.144 290.261 350.539L282.788 319.529Z" fill="#172CE7"/>
<rect x="312.67" y="358.574" width="303.64" height="69.5256" rx="10" fill="#172CE7"/>
<path d="M405.227 387.872V374.288H397.859L397.739 377.816C397.691 379 397.611 380.136 397.499 381.224C397.403 382.312 397.259 383.296 397.067 384.176C396.875 385.04 396.603 385.752 396.251 386.312C395.915 386.872 395.483 387.216 394.955 387.344L392.363 386.912C392.987 386.96 393.499 386.752 393.899 386.288C394.315 385.808 394.635 385.144 394.859 384.296C395.099 383.432 395.275 382.432 395.387 381.296C395.499 380.144 395.579 378.912 395.627 377.6L395.795 372.2H407.603V387.872H405.227ZM391.763 392.672L391.787 386.912H410.075V392.672H407.843V389H394.019L393.995 392.672H391.763ZM410.86 388.976L411.004 387.032C411.116 387.048 411.22 387.064 411.316 387.08C411.412 387.096 411.5 387.104 411.58 387.104C412.092 387.104 412.492 386.928 412.78 386.576C413.084 386.224 413.308 385.76 413.452 385.184C413.596 384.592 413.7 383.928 413.764 383.192C413.828 382.456 413.876 381.72 413.908 380.984L414.124 376.28H423.892V389H421.588V377.624L422.14 378.296H415.612L416.14 377.6L415.972 381.128C415.924 382.248 415.836 383.296 415.708 384.272C415.58 385.248 415.38 386.104 415.108 386.84C414.852 387.576 414.492 388.152 414.028 388.568C413.58 388.984 412.996 389.192 412.276 389.192C412.068 389.192 411.844 389.168 411.604 389.12C411.38 389.088 411.132 389.04 410.86 388.976ZM436.483 389V384.536L436.843 384.968H432.787C431.091 384.968 429.763 384.608 428.803 383.888C427.859 383.168 427.387 382.12 427.387 380.744C427.387 379.272 427.891 378.16 428.899 377.408C429.923 376.656 431.283 376.28 432.979 376.28H438.547V389H436.483ZM427.267 389L430.723 384.128H433.099L429.739 389H427.267ZM436.483 383.816V377.648L436.843 378.296H433.051C431.995 378.296 431.179 378.496 430.603 378.896C430.027 379.28 429.739 379.92 429.739 380.816C429.739 382.48 430.811 383.312 432.955 383.312H436.843L436.483 383.816ZM458.704 389L453.784 382.808L455.68 381.656L461.416 389H458.704ZM449.488 389V376.28H451.792V389H449.488ZM451.096 383.624V381.656H455.296V383.624H451.096ZM455.872 382.904L453.736 382.616L458.608 376.28H461.08L455.872 382.904ZM470.576 389.144C469.52 389.144 468.552 388.904 467.672 388.424C466.808 387.928 466.112 387.2 465.584 386.24C465.072 385.28 464.816 384.08 464.816 382.64C464.816 381.2 465.064 380 465.56 379.04C466.072 378.08 466.76 377.36 467.624 376.88C468.504 376.4 469.488 376.16 470.576 376.16C471.824 376.16 472.928 376.432 473.888 376.976C474.848 377.52 475.608 378.28 476.168 379.256C476.728 380.216 477.008 381.344 477.008 382.64C477.008 383.936 476.728 385.072 476.168 386.048C475.608 387.024 474.848 387.784 473.888 388.328C472.928 388.872 471.824 389.144 470.576 389.144ZM463.832 393.656V376.28H466.04V379.712L465.896 382.664L466.136 385.616V393.656H463.832ZM470.384 387.128C471.2 387.128 471.928 386.944 472.568 386.576C473.224 386.208 473.736 385.688 474.104 385.016C474.488 384.328 474.68 383.536 474.68 382.64C474.68 381.728 474.488 380.944 474.104 380.288C473.736 379.616 473.224 379.096 472.568 378.728C471.928 378.36 471.2 378.176 470.384 378.176C469.584 378.176 468.856 378.36 468.2 378.728C467.56 379.096 467.048 379.616 466.664 380.288C466.296 380.944 466.112 381.728 466.112 382.64C466.112 383.536 466.296 384.328 466.664 385.016C467.048 385.688 467.56 386.208 468.2 386.576C468.856 386.944 469.584 387.128 470.384 387.128ZM480.651 393.8C480.043 393.8 479.451 393.696 478.875 393.488C478.299 393.296 477.803 393.008 477.387 392.624L478.371 390.896C478.691 391.2 479.043 391.432 479.427 391.592C479.811 391.752 480.219 391.832 480.651 391.832C481.211 391.832 481.675 391.688 482.043 391.4C482.411 391.112 482.755 390.6 483.075 389.864L483.867 388.112L484.107 387.824L489.099 376.28H491.355L485.187 390.272C484.819 391.168 484.403 391.872 483.939 392.384C483.491 392.896 482.995 393.256 482.451 393.464C481.907 393.688 481.307 393.8 480.651 393.8ZM483.675 389.408L477.867 376.28H480.267L485.211 387.608L483.675 389.408ZM496.234 389V377.696L496.81 378.296H491.578V376.28H503.194V378.296H497.986L498.538 377.696V389H496.234ZM518.126 389V376.28H520.43V389H518.126ZM511.286 380.6C512.902 380.616 514.126 380.984 514.958 381.704C515.806 382.424 516.23 383.44 516.23 384.752C516.23 386.128 515.766 387.192 514.838 387.944C513.926 388.68 512.614 389.04 510.902 389.024L505.55 389V376.28H507.854V380.576L511.286 380.6ZM510.734 387.272C511.758 387.288 512.542 387.08 513.086 386.648C513.63 386.216 513.902 385.576 513.902 384.728C513.902 383.896 513.63 383.288 513.086 382.904C512.558 382.52 511.774 382.32 510.734 382.304L507.854 382.256V387.248L510.734 387.272ZM522.894 389L528.366 381.896L528.342 383.072L523.134 376.28H525.702L529.686 381.512H528.702L532.686 376.28H535.206L529.926 383.12L529.95 381.896L535.47 389H532.854L528.654 383.432L529.59 383.576L525.462 389H522.894ZM394.124 416V413.312L394.004 412.808V408.224C394.004 407.248 393.716 406.496 393.14 405.968C392.58 405.424 391.732 405.152 390.596 405.152C389.844 405.152 389.108 405.28 388.388 405.536C387.668 405.776 387.06 406.104 386.564 406.52L385.604 404.792C386.26 404.264 387.044 403.864 387.956 403.592C388.884 403.304 389.852 403.16 390.86 403.16C392.604 403.16 393.948 403.584 394.892 404.432C395.836 405.28 396.308 406.576 396.308 408.32V416H394.124ZM389.948 416.144C389.004 416.144 388.172 415.984 387.452 415.664C386.748 415.344 386.204 414.904 385.82 414.344C385.436 413.768 385.244 413.12 385.244 412.4C385.244 411.712 385.404 411.088 385.724 410.528C386.06 409.968 386.596 409.52 387.332 409.184C388.084 408.848 389.092 408.68 390.356 408.68H394.388V410.336H390.452C389.3 410.336 388.524 410.528 388.124 410.912C387.724 411.296 387.524 411.76 387.524 412.304C387.524 412.928 387.772 413.432 388.268 413.816C388.764 414.184 389.452 414.368 390.332 414.368C391.196 414.368 391.948 414.176 392.588 413.792C393.244 413.408 393.716 412.848 394.004 412.112L394.46 413.696C394.156 414.448 393.62 415.048 392.852 415.496C392.084 415.928 391.116 416.144 389.948 416.144ZM400.457 416V403.28H402.761V412.544L410.561 403.28H412.649V416H410.345V406.736L402.569 416H400.457ZM406.409 401.624C405.241 401.624 404.321 401.344 403.649 400.784C402.993 400.208 402.657 399.384 402.641 398.312H404.201C404.217 398.92 404.417 399.4 404.801 399.752C405.201 400.104 405.729 400.28 406.385 400.28C407.041 400.28 407.569 400.104 407.969 399.752C408.369 399.4 408.577 398.92 408.593 398.312H410.201C410.185 399.384 409.841 400.208 409.169 400.784C408.497 401.344 407.577 401.624 406.409 401.624ZM419.641 416V404.696L420.217 405.296H414.985V403.28H426.601V405.296H421.393L421.945 404.696V416H419.641ZM428.957 416V403.28H431.261V412.544L439.061 403.28H441.149V416H438.845V406.736L431.069 416H428.957ZM454.069 413.984L453.541 414.584V403.28H455.845V414.584L455.269 413.984H461.989L461.437 414.584V403.28H463.741V416H445.621V403.28H447.925V414.584L447.373 413.984H454.069ZM468.214 416V403.28H470.518V408.68H477.766V403.28H480.07V416H477.766V410.672H470.518V416H468.214ZM484.55 416V403.28H486.854V412.544L494.654 403.28H496.742V416H494.438V406.736L486.662 416H484.55ZM510.43 416L505.51 409.808L507.406 408.656L513.142 416H510.43ZM501.214 416V403.28H503.518V416H501.214ZM502.822 410.624V408.656H507.022V410.624H502.822ZM507.598 409.904L505.462 409.616L510.334 403.28H512.806L507.598 409.904ZM520.584 416.144C519.304 416.144 518.168 415.864 517.176 415.304C516.184 414.744 515.4 413.976 514.824 413C514.248 412.008 513.96 410.888 513.96 409.64C513.96 408.376 514.248 407.256 514.824 406.28C515.4 405.304 516.184 404.544 517.176 404C518.168 403.44 519.304 403.16 520.584 403.16C521.848 403.16 522.976 403.44 523.968 404C524.976 404.544 525.76 405.304 526.32 406.28C526.896 407.24 527.184 408.36 527.184 409.64C527.184 410.904 526.896 412.024 526.32 413C525.76 413.976 524.976 414.744 523.968 415.304C522.976 415.864 521.848 416.144 520.584 416.144ZM520.584 414.128C521.4 414.128 522.128 413.944 522.768 413.576C523.424 413.208 523.936 412.688 524.304 412.016C524.672 411.328 524.856 410.536 524.856 409.64C524.856 408.728 524.672 407.944 524.304 407.288C523.936 406.616 523.424 406.096 522.768 405.728C522.128 405.36 521.4 405.176 520.584 405.176C519.768 405.176 519.04 405.36 518.4 405.728C517.76 406.096 517.248 406.616 516.864 407.288C516.48 407.944 516.288 408.728 516.288 409.64C516.288 410.536 516.48 411.328 516.864 412.016C517.248 412.688 517.76 413.208 518.4 413.576C519.04 413.944 519.768 414.128 520.584 414.128ZM530.511 416V403.28H536.415C537.903 403.28 539.071 403.568 539.919 404.144C540.783 404.704 541.215 405.504 541.215 406.544C541.215 407.584 540.807 408.392 539.991 408.968C539.191 409.528 538.127 409.808 536.799 409.808L537.159 409.184C538.679 409.184 539.807 409.464 540.543 410.024C541.279 410.584 541.647 411.408 541.647 412.496C541.647 413.6 541.231 414.464 540.399 415.088C539.583 415.696 538.327 416 536.631 416H530.511ZM532.767 414.224H536.463C537.423 414.224 538.143 414.08 538.623 413.792C539.103 413.488 539.343 413.008 539.343 412.352C539.343 411.68 539.119 411.192 538.671 410.888C538.239 410.568 537.551 410.408 536.607 410.408H532.767V414.224ZM532.767 408.752H536.223C537.103 408.752 537.767 408.592 538.215 408.272C538.679 407.936 538.911 407.472 538.911 406.88C538.911 406.272 538.679 405.816 538.215 405.512C537.767 405.208 537.103 405.056 536.223 405.056H532.767V408.752Z" fill="white"/>
<path d="M299.488 544.047C300.972 543.63 302.261 545.198 301.733 546.776L291.591 577.104C291.033 578.772 288.961 578.988 288.153 577.462L281.52 564.928C281.388 564.679 281.211 564.464 280.999 564.295L270.316 555.779C269.015 554.742 269.421 552.5 270.989 552.059L299.488 544.047Z" fill="#172CE7"/>
<rect y="581.57" width="267.042" height="71.53" rx="10" fill="#172CE7"/>
<path d="M34.1276 610.872V597.288H26.7596L26.6396 600.816C26.5916 602 26.5116 603.136 26.3996 604.224C26.3036 605.312 26.1596 606.296 25.9676 607.176C25.7756 608.04 25.5036 608.752 25.1516 609.312C24.8156 609.872 24.3836 610.216 23.8556 610.344L21.2636 609.912C21.8876 609.96 22.3996 609.752 22.7996 609.288C23.2156 608.808 23.5356 608.144 23.7596 607.296C23.9996 606.432 24.1756 605.432 24.2876 604.296C24.3996 603.144 24.4796 601.912 24.5276 600.6L24.6956 595.2H36.5036V610.872H34.1276ZM20.6636 615.672L20.6876 609.912H38.9756V615.672H36.7436V612H22.9196L22.8956 615.672H20.6636ZM39.7606 611.976L39.9046 610.032C40.0166 610.048 40.1206 610.064 40.2166 610.08C40.3126 610.096 40.4006 610.104 40.4806 610.104C40.9926 610.104 41.3926 609.928 41.6806 609.576C41.9846 609.224 42.2086 608.76 42.3526 608.184C42.4966 607.592 42.6006 606.928 42.6646 606.192C42.7286 605.456 42.7766 604.72 42.8086 603.984L43.0246 599.28H52.7926V612H50.4886V600.624L51.0406 601.296H44.5126L45.0406 600.6L44.8726 604.128C44.8246 605.248 44.7366 606.296 44.6086 607.272C44.4806 608.248 44.2806 609.104 44.0086 609.84C43.7526 610.576 43.3926 611.152 42.9286 611.568C42.4806 611.984 41.8966 612.192 41.1766 612.192C40.9686 612.192 40.7446 612.168 40.5046 612.12C40.2806 612.088 40.0326 612.04 39.7606 611.976ZM65.3836 612V607.536L65.7436 607.968H61.6876C59.9916 607.968 58.6636 607.608 57.7036 606.888C56.7596 606.168 56.2876 605.12 56.2876 603.744C56.2876 602.272 56.7916 601.16 57.7996 600.408C58.8236 599.656 60.1836 599.28 61.8796 599.28H67.4476V612H65.3836ZM56.1676 612L59.6236 607.128H61.9996L58.6396 612H56.1676ZM65.3836 606.816V600.648L65.7436 601.296H61.9516C60.8956 601.296 60.0796 601.496 59.5036 601.896C58.9276 602.28 58.6396 602.92 58.6396 603.816C58.6396 605.48 59.7116 606.312 61.8556 606.312H65.7436L65.3836 606.816ZM78.3883 612V599.28H90.1723V612H87.8683V600.72L88.4203 601.296H80.1403L80.6923 600.72V612H78.3883ZM100.294 612.144C98.9344 612.144 97.7344 611.864 96.6944 611.304C95.6704 610.744 94.8704 609.976 94.2944 609C93.7344 608.024 93.4544 606.904 93.4544 605.64C93.4544 604.376 93.7264 603.256 94.2704 602.28C94.8304 601.304 95.5904 600.544 96.5504 600C97.5264 599.44 98.6224 599.16 99.8384 599.16C101.07 599.16 102.158 599.432 103.102 599.976C104.046 600.52 104.782 601.288 105.31 602.28C105.854 603.256 106.126 604.4 106.126 605.712C106.126 605.808 106.118 605.92 106.102 606.048C106.102 606.176 106.094 606.296 106.078 606.408H95.2544V604.752H104.878L103.942 605.328C103.958 604.512 103.79 603.784 103.438 603.144C103.086 602.504 102.598 602.008 101.974 601.656C101.366 601.288 100.654 601.104 99.8384 601.104C99.0384 601.104 98.3264 601.288 97.7024 601.656C97.0784 602.008 96.5904 602.512 96.2384 603.168C95.8864 603.808 95.7104 604.544 95.7104 605.376V605.76C95.7104 606.608 95.9024 607.368 96.2864 608.04C96.6864 608.696 97.2384 609.208 97.9424 609.576C98.6464 609.944 99.4544 610.128 100.366 610.128C101.118 610.128 101.798 610 102.406 609.744C103.03 609.488 103.574 609.104 104.038 608.592L105.31 610.08C104.734 610.752 104.014 611.264 103.15 611.616C102.302 611.968 101.35 612.144 100.294 612.144ZM116.445 612.144C115.389 612.144 114.421 611.904 113.541 611.424C112.677 610.928 111.981 610.2 111.453 609.24C110.941 608.28 110.685 607.08 110.685 605.64C110.685 604.2 110.933 603 111.429 602.04C111.941 601.08 112.629 600.36 113.493 599.88C114.373 599.4 115.357 599.16 116.445 599.16C117.693 599.16 118.797 599.432 119.757 599.976C120.717 600.52 121.477 601.28 122.037 602.256C122.597 603.216 122.877 604.344 122.877 605.64C122.877 606.936 122.597 608.072 122.037 609.048C121.477 610.024 120.717 610.784 119.757 611.328C118.797 611.872 117.693 612.144 116.445 612.144ZM109.701 616.656V599.28H111.909V602.712L111.765 605.664L112.005 608.616V616.656H109.701ZM116.253 610.128C117.069 610.128 117.797 609.944 118.437 609.576C119.093 609.208 119.605 608.688 119.973 608.016C120.357 607.328 120.549 606.536 120.549 605.64C120.549 604.728 120.357 603.944 119.973 603.288C119.605 602.616 119.093 602.096 118.437 601.728C117.797 601.36 117.069 601.176 116.253 601.176C115.453 601.176 114.725 601.36 114.069 601.728C113.429 602.096 112.917 602.616 112.533 603.288C112.165 603.944 111.981 604.728 111.981 605.64C111.981 606.536 112.165 607.328 112.533 608.016C112.917 608.688 113.429 609.208 114.069 609.576C114.725 609.944 115.453 610.128 116.253 610.128ZM131.888 612.144C130.528 612.144 129.328 611.864 128.288 611.304C127.264 610.744 126.464 609.976 125.888 609C125.328 608.024 125.048 606.904 125.048 605.64C125.048 604.376 125.32 603.256 125.864 602.28C126.424 601.304 127.184 600.544 128.144 600C129.12 599.44 130.216 599.16 131.432 599.16C132.664 599.16 133.752 599.432 134.696 599.976C135.64 600.52 136.376 601.288 136.904 602.28C137.448 603.256 137.72 604.4 137.72 605.712C137.72 605.808 137.712 605.92 137.696 606.048C137.696 606.176 137.688 606.296 137.672 606.408H126.848V604.752H136.472L135.536 605.328C135.552 604.512 135.384 603.784 135.032 603.144C134.68 602.504 134.192 602.008 133.568 601.656C132.96 601.288 132.248 601.104 131.432 601.104C130.632 601.104 129.92 601.288 129.296 601.656C128.672 602.008 128.184 602.512 127.832 603.168C127.48 603.808 127.304 604.544 127.304 605.376V605.76C127.304 606.608 127.496 607.368 127.88 608.04C128.28 608.696 128.832 609.208 129.536 609.576C130.24 609.944 131.048 610.128 131.96 610.128C132.712 610.128 133.392 610 134 609.744C134.624 609.488 135.168 609.104 135.632 608.592L136.904 610.08C136.328 610.752 135.608 611.264 134.744 611.616C133.896 611.968 132.944 612.144 131.888 612.144ZM146.959 612.144C145.599 612.144 144.399 611.864 143.359 611.304C142.335 610.744 141.535 609.976 140.959 609C140.399 608.024 140.119 606.904 140.119 605.64C140.119 604.376 140.391 603.256 140.935 602.28C141.495 601.304 142.255 600.544 143.215 600C144.191 599.44 145.287 599.16 146.503 599.16C147.735 599.16 148.823 599.432 149.767 599.976C150.711 600.52 151.447 601.288 151.975 602.28C152.519 603.256 152.791 604.4 152.791 605.712C152.791 605.808 152.783 605.92 152.767 606.048C152.767 606.176 152.759 606.296 152.743 606.408H141.919V604.752H151.543L150.607 605.328C150.623 604.512 150.455 603.784 150.103 603.144C149.751 602.504 149.263 602.008 148.639 601.656C148.031 601.288 147.319 601.104 146.503 601.104C145.703 601.104 144.991 601.288 144.367 601.656C143.743 602.008 143.255 602.512 142.903 603.168C142.551 603.808 142.375 604.544 142.375 605.376V605.76C142.375 606.608 142.567 607.368 142.951 608.04C143.351 608.696 143.903 609.208 144.607 609.576C145.311 609.944 146.119 610.128 147.031 610.128C147.783 610.128 148.463 610 149.071 609.744C149.695 609.488 150.239 609.104 150.703 608.592L151.975 610.08C151.399 610.752 150.679 611.264 149.815 611.616C148.967 611.968 148.015 612.144 146.959 612.144ZM153.997 612L159.469 604.896L159.445 606.072L154.237 599.28H156.805L160.789 604.512H159.805L163.789 599.28H166.309L161.029 606.12L161.053 604.896L166.573 612H163.957L159.757 606.432L160.693 606.576L156.565 612H153.997ZM176.563 612V609.312L176.443 608.808V604.224C176.443 603.248 176.155 602.496 175.579 601.968C175.019 601.424 174.171 601.152 173.035 601.152C172.283 601.152 171.547 601.28 170.827 601.536C170.107 601.776 169.499 602.104 169.003 602.52L168.043 600.792C168.699 600.264 169.483 599.864 170.395 599.592C171.323 599.304 172.291 599.16 173.299 599.16C175.043 599.16 176.387 599.584 177.331 600.432C178.275 601.28 178.747 602.576 178.747 604.32V612H176.563ZM172.387 612.144C171.443 612.144 170.611 611.984 169.891 611.664C169.187 611.344 168.643 610.904 168.259 610.344C167.875 609.768 167.683 609.12 167.683 608.4C167.683 607.712 167.843 607.088 168.163 606.528C168.499 605.968 169.035 605.52 169.771 605.184C170.523 604.848 171.531 604.68 172.795 604.68H176.827V606.336H172.891C171.739 606.336 170.963 606.528 170.563 606.912C170.163 607.296 169.963 607.76 169.963 608.304C169.963 608.928 170.211 609.432 170.707 609.816C171.203 610.184 171.891 610.368 172.771 610.368C173.635 610.368 174.387 610.176 175.027 609.792C175.683 609.408 176.155 608.848 176.443 608.112L176.899 609.696C176.595 610.448 176.059 611.048 175.291 611.496C174.523 611.928 173.555 612.144 172.387 612.144ZM182.896 612V599.28H188.8C190.288 599.28 191.456 599.568 192.304 600.144C193.168 600.704 193.6 601.504 193.6 602.544C193.6 603.584 193.192 604.392 192.376 604.968C191.576 605.528 190.512 605.808 189.184 605.808L189.544 605.184C191.064 605.184 192.192 605.464 192.928 606.024C193.664 606.584 194.032 607.408 194.032 608.496C194.032 609.6 193.616 610.464 192.784 611.088C191.968 611.696 190.712 612 189.016 612H182.896ZM185.152 610.224H188.848C189.808 610.224 190.528 610.08 191.008 609.792C191.488 609.488 191.728 609.008 191.728 608.352C191.728 607.68 191.504 607.192 191.056 606.888C190.624 606.568 189.936 606.408 188.992 606.408H185.152V610.224ZM185.152 604.752H188.608C189.488 604.752 190.152 604.592 190.6 604.272C191.064 603.936 191.296 603.472 191.296 602.88C191.296 602.272 191.064 601.816 190.6 601.512C190.152 601.208 189.488 601.056 188.608 601.056H185.152V604.752ZM206.086 609.984L205.558 610.584V599.28H207.862V610.584L207.286 609.984H214.006L213.454 610.584V599.28H215.758V612H197.638V599.28H199.942V610.584L199.39 609.984H206.086ZM220.232 612V599.28H222.536V608.544L230.336 599.28H232.424V612H230.12V602.736L222.344 612H220.232ZM234.88 612L240.352 604.896L240.328 606.072L235.12 599.28H237.688L241.672 604.512H240.688L244.672 599.28H247.192L241.912 606.12L241.936 604.896L247.456 612H244.84L240.64 606.432L241.576 606.576L237.448 612H234.88ZM33.2945 639V626.28H39.1985C40.6865 626.28 41.8545 626.568 42.7025 627.144C43.5665 627.704 43.9985 628.504 43.9985 629.544C43.9985 630.584 43.5905 631.392 42.7745 631.968C41.9745 632.528 40.9105 632.808 39.5825 632.808L39.9425 632.184C41.4625 632.184 42.5905 632.464 43.3265 633.024C44.0625 633.584 44.4305 634.408 44.4305 635.496C44.4305 636.6 44.0145 637.464 43.1825 638.088C42.3665 638.696 41.1105 639 39.4145 639H33.2945ZM35.5505 637.224H39.2465C40.2065 637.224 40.9265 637.08 41.4065 636.792C41.8865 636.488 42.1265 636.008 42.1265 635.352C42.1265 634.68 41.9025 634.192 41.4545 633.888C41.0225 633.568 40.3345 633.408 39.3905 633.408H35.5505V637.224ZM35.5505 631.752H39.0065C39.8865 631.752 40.5505 631.592 40.9985 631.272C41.4625 630.936 41.6945 630.472 41.6945 629.88C41.6945 629.272 41.4625 628.816 40.9985 628.512C40.5505 628.208 39.8865 628.056 39.0065 628.056H35.5505V631.752ZM63.17 637.92V628.296H57.65L57.53 630.744C57.498 631.544 57.442 632.32 57.362 633.072C57.298 633.808 57.186 634.488 57.026 635.112C56.882 635.736 56.666 636.248 56.378 636.648C56.09 637.048 55.706 637.296 55.226 637.392L52.946 636.984C53.442 637 53.842 636.84 54.146 636.504C54.45 636.152 54.682 635.672 54.842 635.064C55.018 634.456 55.146 633.768 55.226 633C55.306 632.216 55.37 631.408 55.418 630.576L55.61 626.28H65.474V637.92H63.17ZM52.442 641.952V636.984H67.418V641.952H65.258V639H54.626V641.952H52.442ZM77.1635 639.144C76.1075 639.144 75.1395 638.904 74.2595 638.424C73.3955 637.928 72.6995 637.2 72.1715 636.24C71.6595 635.28 71.4035 634.08 71.4035 632.64C71.4035 631.2 71.6515 630 72.1475 629.04C72.6595 628.08 73.3475 627.36 74.2115 626.88C75.0915 626.4 76.0755 626.16 77.1635 626.16C78.4115 626.16 79.5155 626.432 80.4755 626.976C81.4355 627.52 82.1955 628.28 82.7555 629.256C83.3155 630.216 83.5955 631.344 83.5955 632.64C83.5955 633.936 83.3155 635.072 82.7555 636.048C82.1955 637.024 81.4355 637.784 80.4755 638.328C79.5155 638.872 78.4115 639.144 77.1635 639.144ZM70.4195 643.656V626.28H72.6275V629.712L72.4835 632.664L72.7235 635.616V643.656H70.4195ZM76.9715 637.128C77.7875 637.128 78.5155 636.944 79.1555 636.576C79.8115 636.208 80.3235 635.688 80.6915 635.016C81.0755 634.328 81.2675 633.536 81.2675 632.64C81.2675 631.728 81.0755 630.944 80.6915 630.288C80.3235 629.616 79.8115 629.096 79.1555 628.728C78.5155 628.36 77.7875 628.176 76.9715 628.176C76.1715 628.176 75.4435 628.36 74.7875 628.728C74.1475 629.096 73.6355 629.616 73.2515 630.288C72.8835 630.944 72.6995 631.728 72.6995 632.64C72.6995 633.536 72.8835 634.328 73.2515 635.016C73.6355 635.688 74.1475 636.208 74.7875 636.576C75.4435 636.944 76.1715 637.128 76.9715 637.128ZM87.2394 643.8C86.6314 643.8 86.0394 643.696 85.4634 643.488C84.8874 643.296 84.3914 643.008 83.9754 642.624L84.9594 640.896C85.2794 641.2 85.6314 641.432 86.0154 641.592C86.3994 641.752 86.8074 641.832 87.2394 641.832C87.7994 641.832 88.2634 641.688 88.6314 641.4C88.9994 641.112 89.3434 640.6 89.6634 639.864L90.4554 638.112L90.6954 637.824L95.6874 626.28H97.9434L91.7754 640.272C91.4074 641.168 90.9914 641.872 90.5274 642.384C90.0794 642.896 89.5834 643.256 89.0394 643.464C88.4954 643.688 87.8954 643.8 87.2394 643.8ZM90.2634 639.408L84.4554 626.28H86.8554L91.7994 637.608L90.2634 639.408ZM100.302 639V626.28H109.662V628.296H102.054L102.606 627.768V639H100.302ZM112.669 643.8C112.061 643.8 111.469 643.696 110.893 643.488C110.317 643.296 109.821 643.008 109.405 642.624L110.389 640.896C110.709 641.2 111.061 641.432 111.445 641.592C111.829 641.752 112.237 641.832 112.669 641.832C113.229 641.832 113.693 641.688 114.061 641.4C114.429 641.112 114.773 640.6 115.093 639.864L115.885 638.112L116.125 637.824L121.117 626.28H123.373L117.205 640.272C116.837 641.168 116.421 641.872 115.957 642.384C115.509 642.896 115.013 643.256 114.469 643.464C113.925 643.688 113.325 643.8 112.669 643.8ZM115.693 639.408L109.885 626.28H112.285L117.229 637.608L115.693 639.408ZM125.732 639V626.28H128.036V631.488H131.876V633.624H128.036V639H125.732ZM136.988 639.144C135.74 639.144 134.628 638.864 133.652 638.304C132.692 637.744 131.932 636.976 131.372 636C130.812 635.008 130.532 633.888 130.532 632.64C130.532 631.376 130.812 630.256 131.372 629.28C131.932 628.288 132.692 627.52 133.652 626.976C134.628 626.432 135.74 626.16 136.988 626.16C138.22 626.16 139.324 626.432 140.3 626.976C141.276 627.52 142.044 628.288 142.604 629.28C143.164 630.256 143.444 631.376 143.444 632.64C143.444 633.904 143.164 635.024 142.604 636C142.044 636.976 141.276 637.744 140.3 638.304C139.324 638.864 138.22 639.144 136.988 639.144ZM136.988 637.128C137.788 637.128 138.5 636.944 139.124 636.576C139.748 636.192 140.244 635.672 140.612 635.016C140.98 634.344 141.164 633.552 141.164 632.64C141.164 631.728 140.98 630.944 140.612 630.288C140.244 629.616 139.748 629.096 139.124 628.728C138.5 628.36 137.788 628.176 136.988 628.176C136.204 628.176 135.492 628.36 134.852 628.728C134.228 629.096 133.732 629.616 133.364 630.288C132.996 630.944 132.812 631.728 132.812 632.64C132.812 633.552 132.996 634.344 133.364 635.016C133.732 635.672 134.228 636.192 134.852 636.576C135.492 636.944 136.204 637.128 136.988 637.128ZM158.745 639.144C157.449 639.144 156.289 638.864 155.265 638.304C154.257 637.744 153.465 636.976 152.889 636C152.313 635.024 152.025 633.904 152.025 632.64C152.025 631.376 152.313 630.256 152.889 629.28C153.465 628.304 154.257 627.544 155.265 627C156.289 626.44 157.449 626.16 158.745 626.16C159.897 626.16 160.921 626.392 161.817 626.856C162.729 627.304 163.433 627.976 163.929 628.872L162.177 630C161.761 629.376 161.249 628.92 160.641 628.632C160.049 628.328 159.409 628.176 158.721 628.176C157.889 628.176 157.145 628.36 156.489 628.728C155.833 629.096 155.313 629.616 154.929 630.288C154.545 630.944 154.353 631.728 154.353 632.64C154.353 633.552 154.545 634.344 154.929 635.016C155.313 635.688 155.833 636.208 156.489 636.576C157.145 636.944 157.889 637.128 158.721 637.128C159.409 637.128 160.049 636.984 160.641 636.696C161.249 636.392 161.761 635.928 162.177 635.304L163.929 636.408C163.433 637.288 162.729 637.968 161.817 638.448C160.921 638.912 159.897 639.144 158.745 639.144ZM169.268 639V627.696L169.844 628.296H164.612V626.28H176.228V628.296H171.02L171.572 627.696V639H169.268ZM185.328 639.144C184.272 639.144 183.304 638.904 182.424 638.424C181.56 637.928 180.864 637.2 180.336 636.24C179.824 635.28 179.568 634.08 179.568 632.64C179.568 631.2 179.816 630 180.312 629.04C180.824 628.08 181.512 627.36 182.376 626.88C183.256 626.4 184.24 626.16 185.328 626.16C186.576 626.16 187.68 626.432 188.64 626.976C189.6 627.52 190.36 628.28 190.92 629.256C191.48 630.216 191.76 631.344 191.76 632.64C191.76 633.936 191.48 635.072 190.92 636.048C190.36 637.024 189.6 637.784 188.64 638.328C187.68 638.872 186.576 639.144 185.328 639.144ZM178.584 643.656V626.28H180.792V629.712L180.648 632.664L180.888 635.616V643.656H178.584ZM185.136 637.128C185.952 637.128 186.68 636.944 187.32 636.576C187.976 636.208 188.488 635.688 188.856 635.016C189.24 634.328 189.432 633.536 189.432 632.64C189.432 631.728 189.24 630.944 188.856 630.288C188.488 629.616 187.976 629.096 187.32 628.728C186.68 628.36 185.952 628.176 185.136 628.176C184.336 628.176 183.608 628.36 182.952 628.728C182.312 629.096 181.8 629.616 181.416 630.288C181.048 630.944 180.864 631.728 180.864 632.64C180.864 633.536 181.048 634.328 181.416 635.016C181.8 635.688 182.312 636.208 182.952 636.576C183.608 636.944 184.336 637.128 185.136 637.128ZM202.79 639V636.312L202.67 635.808V631.224C202.67 630.248 202.382 629.496 201.806 628.968C201.246 628.424 200.398 628.152 199.262 628.152C198.51 628.152 197.774 628.28 197.054 628.536C196.334 628.776 195.726 629.104 195.23 629.52L194.27 627.792C194.926 627.264 195.71 626.864 196.622 626.592C197.55 626.304 198.518 626.16 199.526 626.16C201.27 626.16 202.614 626.584 203.558 627.432C204.502 628.28 204.974 629.576 204.974 631.32V639H202.79ZM198.614 639.144C197.67 639.144 196.838 638.984 196.118 638.664C195.414 638.344 194.87 637.904 194.486 637.344C194.102 636.768 193.91 636.12 193.91 635.4C193.91 634.712 194.07 634.088 194.39 633.528C194.726 632.968 195.262 632.52 195.998 632.184C196.75 631.848 197.758 631.68 199.022 631.68H203.054V633.336H199.118C197.966 633.336 197.19 633.528 196.79 633.912C196.39 634.296 196.19 634.76 196.19 635.304C196.19 635.928 196.438 636.432 196.934 636.816C197.43 637.184 198.118 637.368 198.998 637.368C199.862 637.368 200.614 637.176 201.254 636.792C201.91 636.408 202.382 635.848 202.67 635.112L203.126 636.696C202.822 637.448 202.286 638.048 201.518 638.496C200.75 638.928 199.782 639.144 198.614 639.144ZM209.123 639V626.28H211.427V631.68H218.675V626.28H220.979V639H218.675V633.672H211.427V639H209.123ZM226.107 643.8C225.499 643.8 224.907 643.696 224.331 643.488C223.755 643.296 223.259 643.008 222.843 642.624L223.827 640.896C224.147 641.2 224.499 641.432 224.883 641.592C225.267 641.752 225.675 641.832 226.107 641.832C226.667 641.832 227.131 641.688 227.499 641.4C227.867 641.112 228.211 640.6 228.531 639.864L229.323 638.112L229.563 637.824L234.555 626.28H236.811L230.643 640.272C230.275 641.168 229.859 641.872 229.395 642.384C228.947 642.896 228.451 643.256 227.907 643.464C227.363 643.688 226.763 643.8 226.107 643.8ZM229.131 639.408L223.323 626.28H225.723L230.667 637.608L229.131 639.408Z" fill="white"/>
<path d="M650.493 675.047C651.976 674.63 653.265 676.198 652.737 677.776L642.595 708.104C642.037 709.772 639.965 709.988 639.157 708.462L632.524 695.928C632.392 695.679 632.215 695.464 632.003 695.295L621.32 686.779C620.019 685.742 620.424 683.5 621.992 683.059L650.493 675.047Z" fill="#172CE7"/>
<rect x="351" y="712.57" width="267.045" height="71.53" rx="10" fill="#172CE7"/>
<path d="M380.276 741.872V728.288H372.908L372.788 731.816C372.74 733 372.66 734.136 372.548 735.224C372.452 736.312 372.308 737.296 372.116 738.176C371.924 739.04 371.652 739.752 371.3 740.312C370.964 740.872 370.532 741.216 370.004 741.344L367.412 740.912C368.036 740.96 368.548 740.752 368.948 740.288C369.364 739.808 369.684 739.144 369.908 738.296C370.148 737.432 370.324 736.432 370.436 735.296C370.548 734.144 370.628 732.912 370.676 731.6L370.844 726.2H382.652V741.872H380.276ZM366.812 746.672L366.836 740.912H385.124V746.672H382.892V743H369.068L369.044 746.672H366.812ZM385.909 742.976L386.053 741.032C386.165 741.048 386.269 741.064 386.365 741.08C386.461 741.096 386.549 741.104 386.629 741.104C387.141 741.104 387.541 740.928 387.829 740.576C388.133 740.224 388.357 739.76 388.501 739.184C388.645 738.592 388.749 737.928 388.813 737.192C388.877 736.456 388.925 735.72 388.957 734.984L389.173 730.28H398.941V743H396.637V731.624L397.189 732.296H390.661L391.189 731.6L391.021 735.128C390.973 736.248 390.885 737.296 390.757 738.272C390.629 739.248 390.429 740.104 390.157 740.84C389.901 741.576 389.541 742.152 389.077 742.568C388.629 742.984 388.045 743.192 387.325 743.192C387.117 743.192 386.893 743.168 386.653 743.12C386.429 743.088 386.181 743.04 385.909 742.976ZM411.532 743V738.536L411.892 738.968H407.836C406.14 738.968 404.812 738.608 403.852 737.888C402.908 737.168 402.436 736.12 402.436 734.744C402.436 733.272 402.94 732.16 403.948 731.408C404.972 730.656 406.332 730.28 408.028 730.28H413.596V743H411.532ZM402.316 743L405.772 738.128H408.148L404.788 743H402.316ZM411.532 737.816V731.648L411.892 732.296H408.1C407.044 732.296 406.228 732.496 405.652 732.896C405.076 733.28 404.788 733.92 404.788 734.816C404.788 736.48 405.86 737.312 408.004 737.312H411.892L411.532 737.816ZM424.537 743V730.28H436.321V743H434.017V731.72L434.569 732.296H426.289L426.841 731.72V743H424.537ZM438.667 742.976L438.811 741.032C438.923 741.048 439.027 741.064 439.123 741.08C439.219 741.096 439.307 741.104 439.387 741.104C439.899 741.104 440.299 740.928 440.587 740.576C440.891 740.224 441.115 739.76 441.259 739.184C441.403 738.592 441.507 737.928 441.571 737.192C441.635 736.456 441.683 735.72 441.715 734.984L441.931 730.28H451.699V743H449.395V731.624L449.947 732.296H443.419L443.947 731.6L443.779 735.128C443.731 736.248 443.643 737.296 443.515 738.272C443.387 739.248 443.187 740.104 442.915 740.84C442.659 741.576 442.299 742.152 441.835 742.568C441.387 742.984 440.803 743.192 440.083 743.192C439.875 743.192 439.651 743.168 439.411 743.12C439.187 743.088 438.939 743.04 438.667 742.976ZM463.954 743V740.312L463.834 739.808V735.224C463.834 734.248 463.546 733.496 462.97 732.968C462.41 732.424 461.562 732.152 460.426 732.152C459.674 732.152 458.938 732.28 458.218 732.536C457.498 732.776 456.89 733.104 456.394 733.52L455.434 731.792C456.09 731.264 456.874 730.864 457.786 730.592C458.714 730.304 459.682 730.16 460.69 730.16C462.434 730.16 463.778 730.584 464.722 731.432C465.666 732.28 466.138 733.576 466.138 735.32V743H463.954ZM459.778 743.144C458.834 743.144 458.002 742.984 457.282 742.664C456.578 742.344 456.034 741.904 455.65 741.344C455.266 740.768 455.074 740.12 455.074 739.4C455.074 738.712 455.234 738.088 455.554 737.528C455.89 736.968 456.426 736.52 457.162 736.184C457.914 735.848 458.922 735.68 460.186 735.68H464.218V737.336H460.282C459.13 737.336 458.354 737.528 457.954 737.912C457.554 738.296 457.354 738.76 457.354 739.304C457.354 739.928 457.602 740.432 458.098 740.816C458.594 741.184 459.282 741.368 460.162 741.368C461.026 741.368 461.778 741.176 462.418 740.792C463.074 740.408 463.546 739.848 463.834 739.112L464.29 740.696C463.986 741.448 463.45 742.048 462.682 742.496C461.914 742.928 460.946 743.144 459.778 743.144ZM470.287 743V730.28H472.591V735.68H479.839V730.28H482.143V743H479.839V737.672H472.591V743H470.287ZM486.623 743V730.28H488.927V739.544L496.727 730.28H498.815V743H496.511V733.736L488.735 743H486.623ZM510.031 743.144C508.975 743.144 508.007 742.904 507.127 742.424C506.263 741.928 505.567 741.2 505.039 740.24C504.527 739.28 504.271 738.08 504.271 736.64C504.271 735.2 504.519 734 505.015 733.04C505.527 732.08 506.215 731.36 507.079 730.88C507.959 730.4 508.943 730.16 510.031 730.16C511.279 730.16 512.383 730.432 513.343 730.976C514.303 731.52 515.063 732.28 515.623 733.256C516.183 734.216 516.463 735.344 516.463 736.64C516.463 737.936 516.183 739.072 515.623 740.048C515.063 741.024 514.303 741.784 513.343 742.328C512.383 742.872 511.279 743.144 510.031 743.144ZM503.287 747.656V730.28H505.495V733.712L505.351 736.664L505.591 739.616V747.656H503.287ZM509.839 741.128C510.655 741.128 511.383 740.944 512.023 740.576C512.679 740.208 513.191 739.688 513.559 739.016C513.943 738.328 514.135 737.536 514.135 736.64C514.135 735.728 513.943 734.944 513.559 734.288C513.191 733.616 512.679 733.096 512.023 732.728C511.383 732.36 510.655 732.176 509.839 732.176C509.039 732.176 508.311 732.36 507.655 732.728C507.015 733.096 506.503 733.616 506.119 734.288C505.751 734.944 505.567 735.728 505.567 736.64C505.567 737.536 505.751 738.328 506.119 739.016C506.503 739.688 507.015 740.208 507.655 740.576C508.311 740.944 509.039 741.128 509.839 741.128ZM520.107 747.8C519.499 747.8 518.907 747.696 518.331 747.488C517.755 747.296 517.259 747.008 516.843 746.624L517.827 744.896C518.147 745.2 518.499 745.432 518.883 745.592C519.267 745.752 519.675 745.832 520.107 745.832C520.667 745.832 521.131 745.688 521.499 745.4C521.867 745.112 522.211 744.6 522.531 743.864L523.323 742.112L523.563 741.824L528.555 730.28H530.811L524.643 744.272C524.275 745.168 523.859 745.872 523.395 746.384C522.947 746.896 522.451 747.256 521.907 747.464C521.363 747.688 520.763 747.8 520.107 747.8ZM523.131 743.408L517.323 730.28H519.723L524.667 741.608L523.131 743.408ZM533.17 743V730.28H535.474V735.488H539.314V737.624H535.474V743H533.17ZM544.426 743.144C543.178 743.144 542.066 742.864 541.09 742.304C540.13 741.744 539.37 740.976 538.81 740C538.25 739.008 537.97 737.888 537.97 736.64C537.97 735.376 538.25 734.256 538.81 733.28C539.37 732.288 540.13 731.52 541.09 730.976C542.066 730.432 543.178 730.16 544.426 730.16C545.658 730.16 546.762 730.432 547.738 730.976C548.714 731.52 549.482 732.288 550.042 733.28C550.602 734.256 550.882 735.376 550.882 736.64C550.882 737.904 550.602 739.024 550.042 740C549.482 740.976 548.714 741.744 547.738 742.304C546.762 742.864 545.658 743.144 544.426 743.144ZM544.426 741.128C545.226 741.128 545.938 740.944 546.562 740.576C547.186 740.192 547.682 739.672 548.05 739.016C548.418 738.344 548.602 737.552 548.602 736.64C548.602 735.728 548.418 734.944 548.05 734.288C547.682 733.616 547.186 733.096 546.562 732.728C545.938 732.36 545.226 732.176 544.426 732.176C543.642 732.176 542.93 732.36 542.29 732.728C541.666 733.096 541.17 733.616 540.802 734.288C540.434 734.944 540.25 735.728 540.25 736.64C540.25 737.552 540.434 738.344 540.802 739.016C541.17 739.672 541.666 740.192 542.29 740.576C542.93 740.944 543.642 741.128 544.426 741.128ZM562.641 740.984L562.113 741.584V730.28H564.417V741.584L563.841 740.984H570.561L570.009 741.584V730.28H572.313V743H554.193V730.28H556.497V741.584L555.945 740.984H562.641ZM572.025 745.712V742.4L572.577 743H569.889V740.984H574.185V745.712H572.025ZM576.787 743V730.28H579.091V739.544L586.891 730.28H588.979V743H586.675V733.736L578.899 743H576.787ZM591.435 743L596.907 735.896L596.883 737.072L591.675 730.28H594.243L598.227 735.512H597.243L601.227 730.28H603.747L598.467 737.12L598.491 735.896L604.011 743H601.395L597.195 737.432L598.131 737.576L594.003 743H591.435ZM422.011 770.144C420.955 770.144 419.987 769.904 419.107 769.424C418.243 768.928 417.547 768.2 417.019 767.24C416.507 766.28 416.251 765.08 416.251 763.64C416.251 762.2 416.499 761 416.995 760.04C417.507 759.08 418.195 758.36 419.059 757.88C419.939 757.4 420.923 757.16 422.011 757.16C423.259 757.16 424.363 757.432 425.323 757.976C426.283 758.52 427.043 759.28 427.603 760.256C428.163 761.216 428.443 762.344 428.443 763.64C428.443 764.936 428.163 766.072 427.603 767.048C427.043 768.024 426.283 768.784 425.323 769.328C424.363 769.872 423.259 770.144 422.011 770.144ZM415.267 774.656V757.28H417.475V760.712L417.331 763.664L417.571 766.616V774.656H415.267ZM421.819 768.128C422.635 768.128 423.363 767.944 424.003 767.576C424.659 767.208 425.171 766.688 425.539 766.016C425.923 765.328 426.115 764.536 426.115 763.64C426.115 762.728 425.923 761.944 425.539 761.288C425.171 760.616 424.659 760.096 424.003 759.728C423.363 759.36 422.635 759.176 421.819 759.176C421.019 759.176 420.291 759.36 419.635 759.728C418.995 760.096 418.483 760.616 418.099 761.288C417.731 761.944 417.547 762.728 417.547 763.64C417.547 764.536 417.731 765.328 418.099 766.016C418.483 766.688 418.995 767.208 419.635 767.576C420.291 767.944 421.019 768.128 421.819 768.128ZM437.455 770.144C436.095 770.144 434.895 769.864 433.855 769.304C432.831 768.744 432.031 767.976 431.455 767C430.895 766.024 430.615 764.904 430.615 763.64C430.615 762.376 430.887 761.256 431.431 760.28C431.991 759.304 432.751 758.544 433.711 758C434.687 757.44 435.783 757.16 436.999 757.16C438.231 757.16 439.319 757.432 440.263 757.976C441.207 758.52 441.943 759.288 442.471 760.28C443.015 761.256 443.287 762.4 443.287 763.712C443.287 763.808 443.279 763.92 443.263 764.048C443.263 764.176 443.255 764.296 443.239 764.408H432.415V762.752H442.039L441.103 763.328C441.119 762.512 440.951 761.784 440.599 761.144C440.247 760.504 439.759 760.008 439.135 759.656C438.527 759.288 437.815 759.104 436.999 759.104C436.199 759.104 435.487 759.288 434.863 759.656C434.239 760.008 433.751 760.512 433.399 761.168C433.047 761.808 432.871 762.544 432.871 763.376V763.76C432.871 764.608 433.063 765.368 433.447 766.04C433.847 766.696 434.399 767.208 435.103 767.576C435.807 767.944 436.615 768.128 437.527 768.128C438.279 768.128 438.959 768 439.567 767.744C440.191 767.488 440.735 767.104 441.199 766.592L442.471 768.08C441.895 768.752 441.175 769.264 440.311 769.616C439.463 769.968 438.511 770.144 437.455 770.144ZM444.538 769.976L444.682 768.032C444.794 768.048 444.898 768.064 444.994 768.08C445.09 768.096 445.178 768.104 445.258 768.104C445.77 768.104 446.17 767.928 446.458 767.576C446.762 767.224 446.986 766.76 447.13 766.184C447.274 765.592 447.378 764.928 447.442 764.192C447.506 763.456 447.554 762.72 447.586 761.984L447.802 757.28H457.57V770H455.266V758.624L455.818 759.296H449.29L449.818 758.6L449.65 762.128C449.602 763.248 449.514 764.296 449.386 765.272C449.258 766.248 449.058 767.104 448.786 767.84C448.53 768.576 448.17 769.152 447.706 769.568C447.258 769.984 446.674 770.192 445.954 770.192C445.746 770.192 445.522 770.168 445.282 770.12C445.058 770.088 444.81 770.04 444.538 769.976ZM467.473 770.144C466.193 770.144 465.057 769.864 464.065 769.304C463.073 768.744 462.289 767.976 461.713 767C461.137 766.008 460.849 764.888 460.849 763.64C460.849 762.376 461.137 761.256 461.713 760.28C462.289 759.304 463.073 758.544 464.065 758C465.057 757.44 466.193 757.16 467.473 757.16C468.737 757.16 469.865 757.44 470.857 758C471.865 758.544 472.649 759.304 473.209 760.28C473.785 761.24 474.073 762.36 474.073 763.64C474.073 764.904 473.785 766.024 473.209 767C472.649 767.976 471.865 768.744 470.857 769.304C469.865 769.864 468.737 770.144 467.473 770.144ZM467.473 768.128C468.289 768.128 469.017 767.944 469.657 767.576C470.313 767.208 470.825 766.688 471.193 766.016C471.561 765.328 471.745 764.536 471.745 763.64C471.745 762.728 471.561 761.944 471.193 761.288C470.825 760.616 470.313 760.096 469.657 759.728C469.017 759.36 468.289 759.176 467.473 759.176C466.657 759.176 465.929 759.36 465.289 759.728C464.649 760.096 464.137 760.616 463.753 761.288C463.369 761.944 463.177 762.728 463.177 763.64C463.177 764.536 463.369 765.328 463.753 766.016C464.137 766.688 464.649 767.208 465.289 767.576C465.929 767.944 466.657 768.128 467.473 768.128ZM486.616 770L481.696 763.808L483.592 762.656L489.328 770H486.616ZM477.4 770V757.28H479.704V770H477.4ZM479.008 764.624V762.656H483.208V764.624H479.008ZM483.784 763.904L481.648 763.616L486.52 757.28H488.992L483.784 763.904ZM499.309 770V767.312L499.189 766.808V762.224C499.189 761.248 498.901 760.496 498.325 759.968C497.765 759.424 496.917 759.152 495.781 759.152C495.029 759.152 494.293 759.28 493.573 759.536C492.853 759.776 492.245 760.104 491.749 760.52L490.789 758.792C491.445 758.264 492.229 757.864 493.141 757.592C494.069 757.304 495.037 757.16 496.045 757.16C497.789 757.16 499.133 757.584 500.077 758.432C501.021 759.28 501.493 760.576 501.493 762.32V770H499.309ZM495.133 770.144C494.189 770.144 493.357 769.984 492.637 769.664C491.933 769.344 491.389 768.904 491.005 768.344C490.621 767.768 490.429 767.12 490.429 766.4C490.429 765.712 490.589 765.088 490.909 764.528C491.245 763.968 491.781 763.52 492.517 763.184C493.269 762.848 494.277 762.68 495.541 762.68H499.573V764.336H495.637C494.485 764.336 493.709 764.528 493.309 764.912C492.909 765.296 492.709 765.76 492.709 766.304C492.709 766.928 492.957 767.432 493.453 767.816C493.949 768.184 494.637 768.368 495.517 768.368C496.381 768.368 497.133 768.176 497.773 767.792C498.429 767.408 498.901 766.848 499.189 766.112L499.645 767.696C499.341 768.448 498.805 769.048 498.037 769.496C497.269 769.928 496.301 770.144 495.133 770.144ZM505.642 770V757.28H507.946V767.984H514.906V757.28H517.21V770H505.642ZM517.042 772.952V769.88L517.618 770H514.906V767.984H519.226V772.952H517.042ZM522.212 770V757.28H524.516V766.544L532.316 757.28H534.404V770H532.1V760.736L524.324 770H522.212ZM538.877 770V757.28H541.181V762.488H545.021V764.624H541.181V770H538.877ZM550.133 770.144C548.885 770.144 547.773 769.864 546.797 769.304C545.837 768.744 545.077 767.976 544.517 767C543.957 766.008 543.677 764.888 543.677 763.64C543.677 762.376 543.957 761.256 544.517 760.28C545.077 759.288 545.837 758.52 546.797 757.976C547.773 757.432 548.885 757.16 550.133 757.16C551.365 757.16 552.469 757.432 553.445 757.976C554.421 758.52 555.189 759.288 555.749 760.28C556.309 761.256 556.589 762.376 556.589 763.64C556.589 764.904 556.309 766.024 555.749 767C555.189 767.976 554.421 768.744 553.445 769.304C552.469 769.864 551.365 770.144 550.133 770.144ZM550.133 768.128C550.933 768.128 551.645 767.944 552.269 767.576C552.893 767.192 553.389 766.672 553.757 766.016C554.125 765.344 554.309 764.552 554.309 763.64C554.309 762.728 554.125 761.944 553.757 761.288C553.389 760.616 552.893 760.096 552.269 759.728C551.645 759.36 550.933 759.176 550.133 759.176C549.349 759.176 548.637 759.36 547.997 759.728C547.373 760.096 546.877 760.616 546.509 761.288C546.141 761.944 545.957 762.728 545.957 763.64C545.957 764.552 546.141 765.344 546.509 766.016C546.877 766.672 547.373 767.192 547.997 767.576C548.637 767.944 549.349 768.128 550.133 768.128Z" fill="white"/>
</svg>
