<svg width="64" height="64" viewBox="0 0 64 64" fill="none" xmlns="http://www.w3.org/2000/svg">
<rect width="64" height="64" rx="10" fill="#172CE7"/>
<path d="M31.9869 11.9997C29.3605 12.0014 26.7601 12.5204 24.3343 13.5271C21.9084 14.5338 19.7046 16.0084 17.8486 17.8668C15.9927 19.7251 14.5209 21.9309 13.5174 24.358C12.5139 26.7852 11.9982 29.3863 11.9999 32.0127C12.0017 34.6391 12.5207 37.2395 13.5273 39.6654C14.534 42.0912 16.0086 44.2951 17.867 46.151C19.7254 48.007 21.9311 49.4787 24.3583 50.4823C26.7854 51.4858 29.3865 52.0014 32.0129 51.9997L31.9999 31.9997L31.9869 11.9997Z" fill="black"/>
<path d="M32.026 12.0129C34.6524 12.0146 37.2528 12.5336 39.6787 13.5403C42.1045 14.5469 44.3084 16.0216 46.1643 17.8799C48.0203 19.7383 49.492 21.9441 50.4956 24.3712C51.4991 26.7984 52.0147 29.3994 52.013 32.0259C52.0113 34.6523 51.4923 37.2527 50.4856 39.6786C49.4789 42.1044 48.0043 44.3082 46.1459 46.1642C44.2876 48.0202 42.0818 49.4919 39.6547 50.4954C37.2275 51.499 34.6264 52.0146 32 52.0129L32.013 32.0129L32.026 12.0129Z" fill="white"/>
</svg>
