<svg width="64" height="64" viewBox="0 0 64 64" fill="none" xmlns="http://www.w3.org/2000/svg">
<rect width="64" height="64" rx="10" fill="#172CE7"/>
<path d="M31.9869 12C29.3605 12.0017 26.7601 12.5207 24.3343 13.5273C21.9084 14.534 19.7046 16.0086 17.8486 17.867C15.9927 19.7254 14.5209 21.9311 13.5174 24.3583C12.5139 26.7855 11.9982 29.3865 11.9999 32.0129C12.0017 34.6394 12.5207 37.2398 13.5273 39.6656C14.534 42.0915 16.0086 44.2953 17.867 46.1513C19.7254 48.0072 21.9311 49.479 24.3583 50.4825C26.7854 51.486 29.3865 52.0017 32.0129 51.9999L31.9999 31.9999L31.9869 12Z" fill="black"/>
<path d="M32.026 12.013C34.6524 12.0147 37.2528 12.5337 39.6787 13.5404C42.1045 14.5471 44.3084 16.0217 46.1643 17.8801C48.0203 19.7384 49.492 21.9442 50.4956 24.3714C51.4991 26.7985 52.0147 29.3996 52.013 32.026C52.0113 34.6524 51.4923 37.2528 50.4856 39.6787C49.4789 42.1045 48.0043 44.3084 46.1459 46.1643C44.2876 48.0203 42.0818 49.4921 39.6547 50.4956C37.2275 51.4991 34.6264 52.0147 32 52.013L32.013 32.013L32.026 12.013Z" fill="white"/>
</svg>
